<?xml version="1.0" encoding="UTF-8"?>
<svg width="1440px" height="288px" viewBox="0 0 1440 288" version="1.1" xmlns="http://www.w3.org/2000/svg" xmlns:xlink="http://www.w3.org/1999/xlink">
    <!-- Generator: Sketch 51.2 (57519) - http://www.bohemiancoding.com/sketch -->
    <title>Group</title>
    <desc>Created with Sketch.</desc>
    <defs>
        <rect id="path-1" x="0" y="0" width="1440" height="337"></rect>
    </defs>
    <g id="Page-1" stroke="none" stroke-width="1" fill="none" fill-rule="evenodd">
        <g id="Desktop-HD" transform="translate(0.000000, -593.000000)">
            <g id="Group" transform="translate(0.000000, 544.000000)">
                <mask id="mask-2" fill="white">
                    <use xlink:href="#path-1"></use>
                </mask>
                <g id="Mask" fill-rule="nonzero"></g>
                <g mask="url(#mask-2)" fill-rule="nonzero">
                    <g transform="translate(0.000000, 49.000000)">
                        <path d="M0,208.942715 C36.6169142,213.352011 68.1173086,216.378703 94.501183,218.022791 C181.556305,223.447556 349.40777,125.278139 514.611989,125.278139 C613.496341,125.278139 708.876831,174.761317 835.509664,172.817776 C929.483709,171.375476 1204.67167,-14.4865109 1396.33974,0.905769721 C1408.77335,1.90427518 1452.60192,2.81299682 1459.90807,19.3180931 C1469.29382,40.5211634 1462.53334,103.729371 1439.62661,208.942715 L1439.62661,424 L0,424 L0,208.942715 Z" id="Rectangle-Copy" fill="#B61524"></path>
                        <path d="M0,215.942715 C36.6169142,220.352011 68.1173086,223.378703 94.501183,225.022791 C181.556305,230.447556 349.40777,132.278139 514.611989,132.278139 C613.496341,132.278139 708.876831,181.761317 835.509664,179.817776 C929.483709,178.375476 1204.67167,-7.48651086 1396.33974,7.90576972 C1408.77335,8.90427518 1452.60192,9.81299682 1459.90807,26.3180931 C1469.29382,47.5211634 1462.53334,110.729371 1439.62661,215.942715 L1439.62661,431 L0,431 L0,215.942715 Z" id="Rectangle" fill="#FFFFFF"></path>
                    </g>
                </g>
            </g>
        </g>
    </g>
</svg>